<svg xmlns="http://www.w3.org/2000/svg" viewBox="0 0 128 128" role="img" aria-label="Cloud and sun icon">
  <defs>
    <linearGradient id="sky" x1="0" y1="0" x2="1" y2="1">
      <stop offset="0%" stop-color="#60a5fa"/>
      <stop offset="100%" stop-color="#4f46e5"/>
    </linearGradient>
    <linearGradient id="sun" x1="0" y1="0" x2="1" y2="1">
      <stop offset="0%" stop-color="#fcd34d"/>
      <stop offset="100%" stop-color="#f59e0b"/>
    </linearGradient>
  </defs>

  <rect x="8" y="8" width="112" height="112" rx="28" fill="url(#sky)"/>

  <g transform="translate(77 35)">
    <circle r="16" fill="url(#sun)"/>
    <g stroke="#fde68a" stroke-width="3" stroke-linecap="round">
      <line x1="0" y1="-24" x2="0" y2="-30"/>
      <line x1="17" y1="-17" x2="21" y2="-21"/>
      <line x1="24" y1="0" x2="30" y2="0"/>
      <line x1="17" y1="17" x2="21" y2="21"/>
      <line x1="0" y1="24" x2="0" y2="30"/>
      <line x1="-17" y1="17" x2="-21" y2="21"/>
      <line x1="-24" y1="0" x2="-30" y2="0"/>
      <line x1="-17" y1="-17" x2="-21" y2="-21"/>
    </g>
  </g>

  <path d="M37 87h48c10.5 0 19-8.2 19-18.4S95.5 50.2 85 50.2h-1.6C80 41.8 72 36 62.8 36 50.9 36 41.2 45.5 41 57.2h-1.8C29.2 57.2 21 65.2 21 75.1 21 82.2 28.2 87 37 87Z"
        fill="#e2e8f0" opacity="0.95"/>
  <path d="M38.5 81h45c7.8 0 14-5.8 14-13s-6.2-13-14-13h-1.2c-2.1-6.1-8-10.4-14.9-10.4-8.8 0-16 6.9-16.1 15.4h-1.4c-7.3 0-13.2 5.8-13.2 13 0 4.6 3.8 8 8.8 8Z"
        fill="#f8fafc"/>
</svg>
